<?xml version="1.0" standalone="no"?>
<!DOCTYPE svg PUBLIC "-//W3C//DTD SVG 20010904//EN"
 "http://www.w3.org/TR/2001/REC-SVG-20010904/DTD/svg10.dtd">
<svg version="1.0" xmlns="http://www.w3.org/2000/svg"
 width="1080.000000pt" height="1080.000000pt" viewBox="0 0 1080.000000 1080.000000"
 preserveAspectRatio="xMidYMid meet">
<metadata>
Created by potrace 1.11, written by Peter Selinger 2001-2013
</metadata>
<g transform="translate(0.000000,1080.000000) scale(0.100000,-0.100000)"
fill="#000000" stroke="none">
<path d="M6250 8904 c-186 -24 -315 -61 -455 -131 -158 -79 -276 -168 -385
-291 -36 -40 -70 -79 -76 -85 -23 -25 -122 -184 -152 -242 -70 -137 -161 -332
-165 -355 -3 -14 -17 -74 -32 -135 -24 -101 -27 -129 -28 -330 -1 -144 3 -237
11 -270 27 -110 56 -194 93 -272 22 -45 44 -93 49 -105 6 -13 23 -39 38 -59
15 -20 54 -72 86 -115 33 -43 62 -81 65 -84 3 -3 24 -25 45 -50 98 -113 261
-274 445 -440 52 -47 99 -89 105 -95 6 -5 40 -35 76 -66 128 -111 256 -245
501 -524 144 -164 179 -209 211 -265 26 -45 63 -179 72 -258 3 -23 7 -46 10
-50 2 -4 7 -55 11 -112 3 -58 8 -132 11 -165 5 -72 13 -273 15 -407 1 -54 5
-98 9 -98 12 0 133 121 188 188 204 249 380 664 417 988 8 63 7 238 0 289 -45
309 -141 531 -333 770 -88 109 -89 110 -227 249 -119 121 -201 197 -419 391
-155 137 -355 349 -343 361 2 3 51 -12 108 -31 140 -48 417 -186 561 -278 120
-77 300 -210 333 -247 10 -11 22 -20 26 -20 4 0 71 192 150 428 78 235 144
432 146 439 3 7 -44 44 -109 87 -280 184 -633 356 -913 446 -55 17 -107 34
-115 37 -40 14 98 42 212 43 108 2 170 -6 303 -40 321 -81 708 -282 999 -520
48 -39 89 -70 90 -68 6 6 286 850 286 859 0 13 -199 141 -345 223 -396 220
-769 356 -1115 407 -110 16 -351 18 -460 3z"/>
<path d="M4506 7467 c-125 -187 -224 -424 -278 -667 -20 -90 -23 -132 -23
-300 0 -212 11 -285 64 -443 56 -163 127 -293 239 -436 94 -120 315 -345 516
-524 218 -193 374 -345 437 -423 50 -63 141 -205 135 -211 -7 -7 -237 57 -331
92 -115 43 -263 112 -385 181 -77 43 -383 239 -413 264 -12 11 -96 75 -157
120 -19 14 -64 51 -101 82 -45 38 -70 54 -75 46 -6 -9 -313 -916 -314 -925 0
-1 53 -40 118 -86 325 -231 675 -403 1112 -547 157 -52 172 -59 145 -67 -56
-15 -304 -9 -395 10 -383 81 -877 348 -1323 715 -55 45 -101 81 -103 79 -7 -7
-314 -923 -314 -938 0 -19 177 -148 335 -244 305 -186 747 -372 1090 -460 229
-59 323 -70 585 -70 207 1 248 3 340 23 387 85 684 283 910 609 l50 71 0 174
c-1 309 -19 790 -34 898 -8 58 -22 128 -30 156 -15 49 -74 148 -112 189 -20
21 -89 113 -116 152 -17 26 -300 326 -342 362 -39 34 -53 49 -171 176 -55 60
-114 122 -131 139 -17 17 -46 54 -64 81 -18 28 -63 84 -100 125 -55 62 -184
220 -318 390 -51 65 -69 94 -127 210 -32 63 -66 127 -76 141 -39 56 -120 229
-128 275 -5 27 -15 62 -21 79 -6 16 -11 56 -10 90 2 79 -9 508 -13 512 -2 1
-34 -43 -71 -100z"/>
</g>
</svg>
